<svg xmlns="http://www.w3.org/2000/svg" viewBox="0 0 64 64"><defs><linearGradient id="ethL" x1="32" y1="10" x2="32" y2="34" gradientUnits="userSpaceOnUse"><stop offset="0" stop-color="#F4F7FB"/><stop offset="1" stop-color="#C6CFDD"/></linearGradient><linearGradient id="ethR" x1="32" y1="10" x2="48" y2="34" gradientUnits="userSpaceOnUse"><stop offset="0" stop-color="#9AA9BC"/><stop offset="1" stop-color="#5C6F85"/></linearGradient><linearGradient id="ethBL" x1="32" y1="37" x2="20" y2="54" gradientUnits="userSpaceOnUse"><stop offset="0" stop-color="#DEE5EE"/><stop offset="1" stop-color="#9AA9BC"/></linearGradient><linearGradient id="ethBR" x1="32" y1="37" x2="44" y2="54" gradientUnits="userSpaceOnUse"><stop offset="0" stop-color="#7B8CA1"/><stop offset="1" stop-color="#3E4C60"/></linearGradient></defs><ellipse cx="32" cy="56" rx="14" ry="3.4" fill="#000" opacity=".35"/><polygon points="32,8 32,34 16,25" fill="url(#ethL)"/><polygon points="32,8 32,34 48,25" fill="url(#ethR)"/><polygon points="32,12 45,26 32,32 19,26" fill="#FFFFFF" opacity=".3"/><polygon points="32,37 16,28 32,56" fill="url(#ethBL)"/><polygon points="32,37 48,28 32,56" fill="url(#ethBR)"/><polygon points="32,40 44,30 32,54 20,30" fill="#FFFFFF" opacity=".08"/><g fill="none" stroke="#CBD5E1" stroke-width="1" opacity=".45" stroke-linejoin="round"><polygon points="32,8 48,25 32,34 16,25"/><polyline points="16,28 32,37 48,28"/><polygon points="32,37 32,56 16,28"/><polygon points="32,37 32,56 48,28"/></g></svg>
