<svg xmlns="http://www.w3.org/2000/svg" viewBox="0 0 64 64"><defs><linearGradient id="ethL" x1="32" y1="10" x2="32" y2="34" gradientUnits="userSpaceOnUse"><stop offset="0" stop-color="#EAF6FF"/><stop offset="1" stop-color="#9CC3E8"/></linearGradient><linearGradient id="ethR" x1="32" y1="10" x2="48" y2="34" gradientUnits="userSpaceOnUse"><stop offset="0" stop-color="#8FB6DC"/><stop offset="1" stop-color="#4A76A8"/></linearGradient><linearGradient id="ethBL" x1="32" y1="37" x2="20" y2="54" gradientUnits="userSpaceOnUse"><stop offset="0" stop-color="#CBE4FA"/><stop offset="1" stop-color="#7FA8CE"/></linearGradient><linearGradient id="ethBR" x1="32" y1="37" x2="44" y2="54" gradientUnits="userSpaceOnUse"><stop offset="0" stop-color="#6E93BF"/><stop offset="1" stop-color="#33578A"/></linearGradient></defs><ellipse cx="32" cy="46" rx="15" ry="4" fill="#2563eb" opacity=".12"/><polygon points="32,8 32,34 16,25" fill="url(#ethL)"/><polygon points="32,8 32,34 48,25" fill="url(#ethR)"/><polygon points="32,12 45,26 32,32 19,26" fill="#FFFFFF" opacity=".28"/><polygon points="32,37 16,28 32,56" fill="url(#ethBL)"/><polygon points="32,37 48,28 32,56" fill="url(#ethBR)"/><polygon points="32,40 44,30 32,54 20,30" fill="#FFFFFF" opacity=".1"/><g fill="none" stroke="#DDEEFB" stroke-width="1.1" opacity=".5" stroke-linejoin="round"><polygon points="32,8 48,25 32,34 16,25"/><polyline points="16,28 32,37 48,28"/><polygon points="32,37 32,56 16,28"/><polygon points="32,37 32,56 48,28"/></g></svg>
