<svg xmlns="http://www.w3.org/2000/svg" viewBox="0 0 64 64"><defs><linearGradient id="vPl" x1="10" y1="8" x2="54" y2="56" gradientUnits="userSpaceOnUse"><stop offset="0" stop-color="#334155"/><stop offset=".5" stop-color="#1e293b"/><stop offset="1" stop-color="#0f172a"/></linearGradient><radialGradient id="vCore" cx="32" cy="31" r="13" gradientUnits="userSpaceOnUse"><stop offset="0" stop-color="#60a5fa"/><stop offset=".55" stop-color="#2563eb"/><stop offset="1" stop-color="#172554"/></radialGradient></defs><rect x="6" y="6" width="52" height="52" rx="12" fill="#0b1220"/><rect x="7" y="7" width="50" height="50" rx="11" fill="url(#vPl)" stroke="#3b82f6" stroke-opacity=".55" stroke-width="1.6"/><g fill="#3b82f6" opacity=".85"><circle cx="13" cy="13" r="1.7"/><circle cx="51" cy="13" r="1.7"/><circle cx="13" cy="51" r="1.7"/><circle cx="51" cy="51" r="1.7"/></g><circle cx="32" cy="31" r="17" fill="#16202e" stroke="#94a3b8" stroke-opacity=".5" stroke-width="2"/><circle cx="32" cy="31" r="13" fill="url(#vCore)"/><circle cx="32" cy="31" r="13" fill="none" stroke="#60a5fa" stroke-width="1.4" opacity=".8"/><g stroke="#0f172a" stroke-width="4" stroke-linecap="round"><line x1="32" y1="15" x2="32" y2="21"/><line x1="32" y1="41" x2="32" y2="47"/><line x1="16" y1="31" x2="22" y2="31"/><line x1="42" y1="31" x2="48" y2="31"/></g><g stroke="#e2e8f0" stroke-width="1.6" stroke-linecap="round" opacity=".8"><line x1="32" y1="15.5" x2="32" y2="20.5"/><line x1="32" y1="41.5" x2="32" y2="46.5"/><line x1="16.5" y1="31" x2="21.5" y2="31"/><line x1="42.5" y1="31" x2="47.5" y2="31"/></g><path d="M32 24l5 7-5 3-5-3z" fill="#0a1626" opacity=".8"/><path d="M32 24l5 7-5 3z" fill="#bfdbfe" opacity=".55"/><circle cx="27" cy="26" r="4" fill="#fff" opacity=".18"/></svg>
