<svg xmlns="http://www.w3.org/2000/svg" viewBox="0 0 320 320" fill="none">
  <defs>
    <linearGradient id="vdoor-rim" x1="160" y1="16" x2="160" y2="304"><stop stop-color="#FDE68A"/><stop offset="0.5" stop-color="#F59E0B"/><stop offset="1" stop-color="#92400E"/></linearGradient>
    <linearGradient id="vdoor-leaf" x1="160" y1="40" x2="160" y2="280"><stop stop-color="#4A3A10"/><stop offset="0.5" stop-color="#121C2A"/><stop offset="1" stop-color="#05080F"/></linearGradient>
    <radialGradient id="vdoor-glow" cx="0.5" cy="0.48" r="0.42"><stop stop-color="#22D3EE" stop-opacity="0.35"/><stop offset="1" stop-opacity="0"/></radialGradient>
  </defs>
  <circle cx="160" cy="160" r="152" fill="#05080F" stroke="url(#vdoor-rim)" stroke-width="4"/>
  <circle cx="160" cy="160" r="132" fill="url(#vdoor-leaf)"/>
  <circle cx="160" cy="160" r="100" fill="url(#vdoor-glow)"/>
  <path fill="#121D2B" stroke="url(#vdoor-rim)" stroke-opacity="0.5" d="M160 48c-58 0-105 47-105 105v36c0 58 47 105 105 105V48z"/>
  <path fill="#0A101C" stroke="url(#vdoor-rim)" stroke-opacity="0.5" d="M160 48c58 0 105 47 105 105v36c0 58-47 105-105 105V48z"/>
  <circle cx="160" cy="160" r="26" stroke="url(#vdoor-rim)" stroke-width="3" fill="#0A101C"/>
  <circle cx="160" cy="160" r="10" fill="#22D3EE"/>
  <ellipse cx="130" cy="100" rx="24" ry="10" fill="#fff" opacity="0.06"/>
</svg>
